#!OML:ASF H:\Dans Jumps\Project 1\Capture day 1\Session 1\subject.ASF
:FULLY-SPECIFIED
:DEGREES
563
root 0.53875 17.718 -1.12232 6.59163 0.393528 -1.51964
lowerback -3.73818 -0.492027 0.53504
upperback 2.16777 -0.756819 1.72069
thorax 4.35063 -0.387377 1.42042
lowerneck -11.9186 0.307528 -2.07638
upperneck 37.407 0.778901 0.704845
head 14.986 0.133413 0.789425
rclavicle -7.90169e-015 7.95139e-015
rhumerus -26.7022 -16.2682 -79.3897
rradius 22.8554
rwrist 36.0237
rhand -21.0242 -27.0707
rfingers 7.12502
rthumb 5.35095 -56.9831
lclavicle -7.90169e-015 7.95139e-015
lhumerus -24.8698 -1.79299 89.1233
lradius 17.159
lwrist 8.01207
lhand -24.0997 -6.38648
lfingers 7.12502
lthumb 2.38111 23.58
rfemur -11.6294 -2.1834 19.83
rtibia 21.4629
rfoot -14.7115 0.403377
rtoes 16.7273
lfemur -8.37189 7.72382 -18.4304
ltibia 17.9682
lfoot -11.7452 6.53263
ltoes 3.72791
564
root 0.541415 17.7174 -1.12453 6.57553 0.388667 -1.51376
lowerback -3.73542 -0.491605 0.539954
upperback 2.17224 -0.756462 1.71805
thorax 4.3536 -0.387025 1.41497
lowerneck -11.9147 0.307555 -2.08204
upperneck 37.4015 0.779854 0.706283
head 14.9824 0.133275 0.79111
rclavicle -2.13694e-015 5.56597e-015
rhumerus -26.6995 -16.2781 -79.3756
rradius 22.8533
rwrist 36.0271
rhand -21.0194 -27.068
rfingers 7.12502
rthumb 5.35566 -56.9803
lclavicle -2.13694e-015 5.56597e-015
lhumerus -24.8381 -1.79504 89.1234
lradius 17.1605
lwrist 7.99412
lhand -24.1435 -6.46324
lfingers 7.12502
lthumb 2.33874 23.5037
rfemur -11.6312 -2.18117 19.8135
rtibia 21.4849
rfoot -14.7178 0.39731
rtoes 16.6979
lfemur -8.366 7.72437 -18.4459
ltibia 17.9782
lfoot -11.7494 6.53689
ltoes 3.72526
565
root 0.543975 17.7167 -1.12676 6.5573 0.381777 -1.51049
lowerback -3.72944 -0.491281 0.545282
upperback 2.17827 -0.756292 1.71676
thorax 4.35638 -0.38678 1.4107
lowerneck -11.9145 0.307893 -2.09012
upperneck 37.397 0.781462 0.709279
head 14.98 0.133255 0.794012
rclavicle 3.23025e-015 3.97569e-016
rhumerus -26.6934 -16.2861 -79.3611
rradius 22.8489
rwrist 36.0298
rhand -21.0154 -27.0752
rfingers 7.12502
rthumb 5.35952 -56.9874
lclavicle 3.23025e-015 3.97569e-016
lhumerus -24.8068 -1.79952 89.126
lradius 17.165
lwrist 7.98998
lhand -24.1789 -6.52245
lfingers 7.12502
lthumb 2.30458 23.4448
rfemur -11.6318 -2.17353 19.8
rtibia 21.5082
rfoot -14.7255 0.387192
rtoes 16.6622
lfemur -8.35913 7.72343 -18.4578
ltibia 17.9911
lfoot -11.7546 6.54386
ltoes 3.72604
566
root 0.546445 17.716 -1.12903 6.53846 0.372179 -1.50762
lowerback -3.72159 -0.491022 0.549999
upperback 2.18499 -0.756165 1.71569
thorax 4.35883 -0.386579 1.407
lowerneck -11.9166 0.308549 -2.10173
upperneck 37.3942 0.783587 0.714975
head 14.979 0.133287 0.798782
rclavicle -9.59136e-015 1.82882e-014
rhumerus -26.6843 -16.2937 -79.3467
rradius 22.8418
rwrist 36.0355
rhand -21.0128 -27.0799
rfingers 7.12502
rthumb 5.36202 -56.9921
lclavicle -9.59136e-015 1.82882e-014
lhumerus -24.7784 -1.80371 89.1297
lradius 17.1739
lwrist 7.99355
lhand -24.2062 -6.55425
lfingers 7.12502
lthumb 2.27826 23.4133
rfemur -11.6321 -2.16083 19.7872
rtibia 21.5312
rfoot -14.7323 0.374083
rtoes 16.623
lfemur -8.35333 7.72288 -18.4689
ltibia 18.0075
lfoot -11.7616 6.55147
ltoes 3.73526
